<svg width="170" height="37" viewBox="0 0 170 37" fill="none" xmlns="http://www.w3.org/2000/svg">
<g clip-path="url(#clip0_6350_26607)">
<path d="M38.0428 3.75003H38.1684C39.2551 6.00005 39.8006 7.29287 39.8006 7.62506L39.5495 7.75006L39.1728 7.62506H38.9217C38.9217 8.37507 39.465 10.8751 40.5539 15.1251C41.2228 17.7911 41.5583 19.7502 41.5583 21.0002C41.5583 23.5821 40.0084 25.2074 36.9129 25.8752C35.9907 26.2074 35.5318 26.7071 35.5318 27.3755C34.9451 28.5412 34.6529 29.7912 34.6529 31.1256C34.6529 32.5415 35.2807 33.2503 36.5362 33.2503H36.9129C39.0043 33.2503 41.8917 31.4578 45.5761 27.8755C49.4249 24.6255 51.7693 22.8324 52.6071 22.5005V22.3758C52.356 21.9577 51.3927 21.2917 49.7193 20.3758C49.2997 19.5417 49.0916 18.8327 49.0916 18.2508C49.0916 17.0008 50.2627 16.2917 52.6071 16.1258H52.7326L53.6115 16.2508H53.7371C56.4148 16.2508 59.8048 16.7076 63.9069 17.6258V18.0008C63.9069 19.3327 62.6514 20.2917 60.1403 20.8758C57.7959 21.7921 56.2048 22.583 55.3693 23.2508L56.1226 24.8761V26.3758L55.8715 26.5008C55.1182 26.5008 54.3648 26.0827 53.6115 25.2508H53.3604C52.0204 27.833 51.3516 29.6668 51.3516 30.7509C51.3516 31.1671 51.5597 31.5009 51.9793 31.7512H52.7326C53.7371 31.7512 55.3263 30.5012 57.5037 28.0012C58.9259 26.9171 61.3525 25.8758 64.7858 24.8761C65.3706 24.5421 66.0825 23.958 66.9202 23.1258C66.8358 22.5421 66.7514 22.0417 66.6691 21.6258C64.8269 13.5417 63.7814 8.58476 63.5303 6.75068V6.25005C63.6128 5.25004 63.7814 4.75004 64.0325 4.75004C65.1192 6.41787 65.6647 7.66788 65.6647 8.50007L65.4136 8.62507L65.0369 8.50007V8.62507L67.548 19.6252L67.6736 21.3752V21.7505C67.5891 24.5002 66.2492 26.2502 63.6558 27.0002C60.3914 27.8324 57.8374 29.3324 55.997 31.5003C54.7415 32.6662 53.7782 33.2503 53.1093 33.2503H52.7326C51.9793 33.2503 51.3516 32.3756 50.8493 30.6256C50.8493 29.2074 51.6852 27.2074 53.3604 24.6255V24.2508C52.356 24.3327 48.966 26.9168 43.1905 32.0006C40.5106 34.1669 38.3351 35.2506 36.6617 35.2506C34.904 35.2506 34.0251 34.1665 34.0251 32.0006V31.2503C34.0251 30.0824 34.4018 28.5821 35.1551 26.7505H34.904C33.6484 26.7505 31.3885 28.2502 28.1241 31.2503C27.3708 31.7506 26.7841 32 26.3663 32C25.0263 31.7503 24.3575 31.0412 24.3575 29.8752L24.2319 29.1252C24.2319 27.2912 24.9852 25.2908 26.4919 23.1252L26.743 21.9999C25.6541 21.6661 24.9008 21.1661 24.483 20.5002L23.6041 18.7502L23.4786 18.5002H23.353C22.9334 18.7502 22.5564 19.4164 22.223 20.5002L20.9675 21.9999C21.5523 21.9999 22.0545 22.8752 22.4742 24.6249V25.1249C22.4742 26.1252 21.8875 26.6252 20.7164 26.6252C19.0412 26.6252 17.9109 25.7912 17.3264 24.1252V23.8749C17.0753 23.8749 16.6554 24.7071 16.0709 26.3749C13.6421 28.7912 10.6288 30.7071 7.03102 32.125C3.93329 33.2075 1.5892 33.7503 0 33.7503V33.3753C0 33.2075 2.63663 32.0825 7.9099 30.0003C11.0054 28.5821 13.7265 26.7505 16.0709 24.4999C16.9909 22.2502 17.5775 21.0821 17.8287 21.0002C20.0886 21.0002 21.8464 19.6658 23.1019 17.0001L23.8552 16.6251C24.6911 18.6252 25.3189 19.6252 25.7386 19.6252H25.9897V19.5002L25.613 17.6251C25.613 15.2073 26.8685 14.0001 29.3796 14.0001C29.9641 14.0001 32.0162 14.457 35.5318 15.3751C37.2895 15.8751 38.1684 16.2073 38.1684 16.3751C38.1684 17.4573 37.2462 18.1661 35.4062 18.5002C32.3929 20.4161 29.7133 21.6252 27.3708 22.1252C27.3708 22.9571 26.8685 24.0002 25.8641 25.2502C25.1108 26.6662 24.7341 27.7502 24.7341 28.5002V29.1252C24.7341 29.9571 25.0678 30.3753 25.7386 30.3753H25.9897C26.9941 30.3753 28.5419 29.3321 30.6352 27.2502C31.304 26.2502 34.1507 24.9571 39.1728 23.3752C40.1773 22.5414 40.6795 22.0411 40.6795 21.8752C40.3439 19.1252 39.5495 15.2911 38.2939 10.3751L37.4151 5.37505C37.4151 4.62504 37.6229 4.0841 38.0428 3.75003ZM13.1832 31.7506H13.4343V31.8753C13.1832 32.2075 11.6335 32.9571 8.78877 34.1253H8.66322V33.875C11.5921 32.4571 13.0987 31.7506 13.1832 31.7506ZM15.6942 15.8751C16.112 15.8751 16.4476 16.0411 16.6987 16.3751V16.7501H16.5731V17.0001C15.7357 16.6664 15.3176 16.4161 15.3176 16.2501V16.1251L15.6942 15.8751ZM16.322 30.3753C16.7398 30.3753 17.242 30.6665 17.8287 31.2503C17.8287 31.7506 17.4934 32.2503 16.8242 32.7503L15.4431 32.0003V31.8753C15.4431 31.4575 15.7354 30.9574 16.322 30.3753ZM17.5775 15.3751H17.8287L18.0798 15.6251V15.7501C18.0798 15.9161 17.8698 16.0001 17.452 16.0001V16.7501L17.0753 17.1251L16.9498 17.0001C17.0323 15.9161 17.242 15.3751 17.5775 15.3751ZM18.2053 23.1252V23.3752C18.7075 24.2915 19.6275 24.7502 20.9675 24.7502H21.0931V24.6252C21.0931 24.1252 20.1297 23.6255 18.2053 23.1252ZM19.3353 29.8756H19.4609C19.712 29.8756 20.2142 30.1253 20.9675 30.6253V30.8753C20.7989 31.7915 20.5478 32.2503 20.2142 32.2503C19.7945 32.2503 19.292 31.9165 18.7075 31.2503C18.8742 30.3324 19.0842 29.8756 19.3353 29.8756ZM19.9631 11.1251H20.0886C20.6731 11.1251 20.9675 11.3751 20.9675 11.8751C20.6323 12.2914 20.2553 12.5001 19.8375 12.5001H19.3353C19.4175 11.5823 19.6275 11.1251 19.9631 11.1251ZM22.4742 32.8753H23.1019L23.8552 33.6253C23.8552 33.9575 23.1842 34.1659 21.8464 34.2503L22.7253 37H22.4742L21.7208 34.5V34.1253C21.9719 33.7915 22.3053 33.6253 22.7253 33.6253C22.7253 33.4572 22.5997 33.375 22.3486 33.375V33.1253L22.4742 32.8753ZM34.904 5.12504V5.37505C34.6529 5.79286 32.5185 6.83381 28.5007 8.50007C26.323 9.50008 25.0675 10.2091 24.7341 10.6251L24.483 10.3751C24.5656 9.95915 28.0396 8.20913 34.904 5.12504ZM26.2408 17.0001C26.6585 19.0823 27.0352 20.1252 27.3708 20.1252C29.2952 20.1252 31.6807 19.1664 34.5273 17.2505C32.6007 16.5005 30.5918 16.0004 28.5007 15.7504C27.0766 16.0001 26.323 16.4161 26.2408 17.0001ZM28.8774 33.25H29.1285C29.6307 33.3325 29.8818 33.4572 29.8818 33.6253V33.7503L29.1285 34.7503V34.8753H29.3796L31.1374 34.7503V34.8753C31.1374 35.2075 30.5507 35.4159 29.3796 35.5003H29.003L28.8774 35.2503V34.5003L29.3796 33.8753V33.7503H29.1285H28.7518L28.5007 33.6256L28.8774 33.25ZM31.0118 21.9999H31.1374C31.9729 22.5821 32.3929 23.2071 32.3929 23.8749L32.2674 24.1252H32.1418C31.8063 23.4571 31.3885 22.8752 30.8863 22.3752L31.0118 21.9999ZM34.904 9.37508L35.4062 10.8751C35.4062 11.291 35.071 11.5001 34.4018 11.5001L33.774 11.8751C33.3543 11.8751 33.1462 11.3751 33.1462 10.3751V10.2501H33.3973L33.774 11.1251H34.2762L33.8996 9.75008L34.0251 9.62508C34.3588 9.62508 34.5273 9.91821 34.5273 10.5001L34.904 10.8751L34.5273 9.50008L34.6529 9.37508H34.904ZM40.1773 0C40.2598 0 40.5539 0.459066 41.0561 1.37501H41.3072L42.5628 0.250002L43.065 0C43.6494 0.334065 43.9439 0.668131 43.9439 1.00001C43.4417 1.58408 42.7709 1.87502 41.935 1.87502C41.935 2.12502 41.6406 2.25002 41.0561 2.25002L40.6795 1.87502C40.2598 2.12502 39.8417 2.25002 39.4239 2.25002H39.1728L38.9217 2.00002V1.87502C39.7576 1.70908 40.1773 1.54283 40.1773 1.37501L40.0517 0.250002L40.1773 0ZM40.6795 25.6252C41.6839 26.0412 42.1861 26.2915 42.1861 26.3749V26.9999C42.0172 27.6662 41.8095 28.0002 41.5583 28.0002H41.1817C40.4284 27.5821 40.0517 27.2502 40.0517 26.9999L40.6795 25.6252ZM42.1861 1.37501H42.3117C42.8139 1.29314 43.065 1.16813 43.065 1.00001V0.875007H42.6883L42.1861 1.37501ZM43.6928 3.50003H43.8183C44.7383 5.41786 45.1994 6.54287 45.1994 6.87506L44.9483 7.12506L44.5716 6.87506V7.12506C45.4916 11.0429 46.1194 14.3323 46.4549 17.0001C46.7061 17.0001 46.9138 18.5823 47.0827 21.7505C47.0827 22.6664 46.9138 23.3752 46.5805 23.8752L46.0783 23.6255V22.7502L46.2038 22.5002H46.0783V21.6252C45.7431 18.9573 44.9894 14.582 43.8183 8.50007C43.6494 7.41819 43.4417 6.87506 43.1905 6.87506H43.3161V6.62506L42.9394 4.87504C43.1061 3.9591 43.3572 3.50003 43.6928 3.50003ZM49.3427 31.2503V31.375C46.0783 33.4572 44.1517 34.5 43.5672 34.5H43.3161V34.2503C44.152 33.5822 46.1608 32.5825 49.3427 31.2503ZM47.5849 9.37508C48.0872 9.70914 48.3383 10.5432 48.3383 11.8751H48.0872L47.3338 9.50008L47.4594 9.37508H47.5849ZM57.6292 3.12503C57.8804 3.12503 58.0059 3.20909 58.0059 3.37503L57.7548 3.75003H57.6292L57.5037 3.62503C55.7459 4.62504 53.6938 5.12504 51.3516 5.12504H49.7193C49.7193 5.37504 49.6349 5.50005 49.4682 5.50005C48.966 4.8341 48.7149 4.3341 48.7149 4.00003C49.7193 4.41785 50.5138 4.62504 51.1004 4.62504C53.1915 4.62504 55.3693 4.12503 57.6292 3.12503ZM50.3471 18.5002C50.4297 18.7502 51.3516 19.4999 53.1093 20.7499C53.6115 21.1661 53.8626 21.4999 53.8626 21.7502L60.0148 19.1252C60.0148 18.707 57.3348 18.4161 51.9793 18.2502H51.6027L50.3471 18.5002ZM61.0192 6.62506L61.1448 6.75006V6.87506C60.0559 7.62506 57.5448 8.58414 53.6115 9.75008L51.1004 10.8751V11.5001H50.9749C50.806 11.5001 50.7238 11.3751 50.7238 11.1251C50.7238 10.2091 52.356 9.37508 55.6204 8.62507C58.8004 7.29287 60.5995 6.62506 61.0192 6.62506ZM53.8626 12.3751C54.2804 12.3751 54.5726 12.5823 54.7415 13.0001V13.2501L54.3648 13.7501H53.6115C53.443 13.7501 53.3604 13.582 53.3604 13.2501C53.5271 12.7501 53.6941 12.4573 53.8626 12.3751ZM61.0192 11.8751C61.0192 12.2914 60.474 12.666 59.387 13.0001C58.8848 12.7501 58.6337 12.2501 58.6337 11.5001V11.2501L58.7592 11.1251L59.2615 12.1251H59.6381L59.387 11.1251V10.8751H59.6381C59.8892 10.9592 60.0148 11.291 60.0148 11.8751H60.3914L60.0148 10.8751L60.1403 10.6251C60.474 10.7092 60.7681 11.1251 61.0192 11.8751ZM59.6381 31.5003C60.474 31.8325 60.8937 32.0825 60.8937 32.2503C60.8937 32.7503 60.307 33.0003 59.1359 33.0003C59.7207 34.6659 60.0148 35.75 60.0148 36.25H59.6381L58.7592 33.375V33.0003C58.9259 32.5 59.0929 32.2503 59.2615 32.2503L59.1359 32.1253V32.0003L59.6381 31.5003ZM64.0325 29.8756C64.5347 30.0415 64.7858 30.2078 64.7858 30.3756V30.6253C64.1992 31.0412 63.9069 31.4162 63.9069 31.7506H64.7858L66.6691 31.2503C65.9984 32.0825 65.1192 32.5003 64.0325 32.5003C63.697 32.5003 63.4459 32.3321 63.2792 32L63.7814 30.6253H63.6558H63.1536C63.3203 30.1249 63.6128 29.8756 64.0325 29.8756ZM66.5436 0.875007L67.2969 2.25002H67.6736L69.0547 1.25001H69.6824C70.1846 1.25001 70.4357 1.37501 70.4357 1.62501V1.87502C70.4357 2.70909 69.6824 3.12503 68.1758 3.12503L67.548 3.25003L67.2969 3.37503C67.2969 3.04284 67.2125 2.87502 67.0458 2.87502C66.7103 3.20909 66.3336 3.37503 65.9158 3.37503H65.6647V3.12503L66.7947 2.62502C66.4595 1.87502 66.2925 1.33407 66.2925 1.00001L66.418 0.875007H66.5436ZM77.4668 29.3752V29.4999C77.4668 30.0003 75.499 30.8324 71.5657 32C70.6435 32.5003 70.1846 32.8321 70.1846 33.0003L69.4313 32.8753L68.0502 33.3753V33.1253C68.0502 32.7075 70.1846 31.7912 74.4535 30.3753C76.0427 29.7074 77.0468 29.3752 77.4668 29.3752ZM68.678 2.25002H68.9291H69.5569V1.87502H69.3058L68.678 2.25002ZM69.808 4.62504C70.6439 6.45912 71.0635 7.66788 71.0635 8.25007H70.5613C71.8168 15.0001 72.4446 19.207 72.4446 20.8752C72.2761 22.2911 72.0249 23.0005 71.6913 23.0005L71.5657 22.7502L71.6913 21.0002L69.808 10.8751L69.9335 10.3751L69.0547 6.25005C69.3058 5.16817 69.5569 4.62504 69.808 4.62504ZM83.87 16.6251C84.8745 17.8752 85.3767 18.707 85.3767 19.1252V19.2502C85.1256 19.2502 85 19.332 85 19.4999C85.9203 21.7502 86.3811 23.2071 86.3811 23.8749V24.2502C86.2122 26.2499 85.5433 27.2502 84.3722 27.2502H83.9956C82.8223 27.2502 81.9434 26.5821 81.3589 25.2502V25.1252H81.1078C81.1078 26.4577 80.1856 27.4574 78.3456 28.1255H77.3412C76.2523 28.1255 75.499 27.1255 75.0812 25.1252L75.3324 22.7502C74.7457 23.4161 74.2435 25.0824 73.8257 27.7502C73.3235 28.5002 72.8624 28.9162 72.4446 29.0002C71.3557 29.0002 70.5613 27.4165 70.0591 24.2505C70.1413 23.0821 70.3102 22.5002 70.5613 22.5002C70.728 22.5002 70.8124 23.5411 70.8124 25.6252C71.3146 26.7071 71.858 27.2502 72.4446 27.2502C72.9468 27.2502 73.5746 25.6665 74.3279 22.5002C74.9127 21.0002 75.499 20.1661 76.0857 20.0002C76.3368 20.3324 76.4623 20.6664 76.4623 21.0002L76.0857 24.1252C76.1682 25.5412 76.796 26.2502 77.969 26.2502H78.2201C79.4756 26.2502 80.3112 25.5821 80.7312 24.2505L79.9778 19.1255V18.7502C79.9778 17.9164 80.1034 17.5001 80.3545 17.5001C81.1078 18.582 81.6512 20.4161 81.9867 23.0005C82.4045 24.5827 83.1578 25.3755 84.2467 25.3755H84.3722L85.7533 24.8755C84.2467 21.1255 83.4934 18.8752 83.4934 18.1252V17.2501C83.5759 16.8323 83.7015 16.6251 83.87 16.6251ZM165.229 12.3751C165.813 12.791 166.108 13.7911 166.108 15.3751C167.279 17.8752 167.866 19.5824 167.866 20.5002V21.1252C167.866 22.9568 167.153 23.9999 165.731 24.2502C165.06 24.2502 164.266 23.7911 163.346 22.8752H163.22C163.22 23.7071 162.549 24.2911 161.211 24.6252H160.96C160.289 24.6252 159.787 24.2505 159.453 23.5002C158.616 24.4165 157.276 24.8752 155.436 24.8752C154.598 24.8752 154.055 24.2502 153.804 23.0002H153.678C150.162 24.0824 143.298 25.3752 133.087 26.8752C126.389 27.7074 120.573 28.1252 115.635 28.1252C108.937 28.1252 103.246 27.4571 98.5598 26.1255H98.3087C98.3087 27.2074 97.8476 27.7502 96.9276 27.7502C95.9232 27.5002 94.8343 27.0412 93.6635 26.3752C92.6591 28.6256 90.1891 30.7503 86.2555 32.7503C83.4092 34.4165 79.3071 35.5825 73.9513 36.2503H72.9468V36.0003L84.2467 31.8753C88.0955 29.9571 90.7325 28.2499 92.1566 26.7505C93.7458 23.8324 94.9191 22.3755 95.6721 22.3755H95.9232L98.9368 24.1255C102.955 25.5415 108.604 26.2505 115.887 26.2505H118.147C127.353 26.2505 138.694 24.7505 152.171 21.7508C153.258 21.3327 154.137 21.1258 154.808 21.1258V21.3755L154.682 21.7508V21.8752C154.682 22.5414 155.059 22.9161 155.813 23.0005H156.566C157.737 23.0005 158.908 22.3755 160.081 21.1255C160.248 21.1255 160.374 21.5002 160.458 22.2505C160.792 22.4164 161.168 22.5005 161.588 22.5005H161.713C162.298 22.5005 162.969 21.8324 163.722 20.5008H163.848C163.93 20.5008 164.014 20.7917 164.099 21.3755C164.516 21.7917 165.144 22.1255 165.982 22.3758C166.735 22.2077 167.112 22.0005 167.112 21.7508L164.601 14.0007C164.852 12.9164 165.06 12.3751 165.229 12.3751ZM76.839 12.8751H77.0901C77.6746 12.8751 78.0945 13.291 78.3456 14.1251V14.6251C78.3456 14.707 78.0101 14.832 77.3412 15.0001C76.7546 16.082 75.9601 16.6251 74.9557 16.6251V16.2501C75.7916 15.9161 76.5038 15.4164 77.0901 14.7501V14.6251C76.6704 14.6251 76.4623 14.5411 76.4623 14.3751C76.4623 13.3751 76.5879 12.8751 76.839 12.8751ZM85 6.00005L85.1256 6.12505V6.25005C85.1256 6.50005 83.1167 7.50006 79.099 9.25008C78.1768 9.50008 77.2982 10.0432 76.4623 10.8751L76.5879 11.1251L76.4623 11.2501L76.0857 10.8751V10.3751C76.3368 9.7929 79.3071 8.33413 85 6.00005ZM77.4668 3.50003H78.0945L78.5967 4.12503V4.37504C78.3456 4.87504 77.926 5.12504 77.3412 5.12504L77.0901 4.50004C77.1723 3.83409 77.2982 3.50003 77.4668 3.50003ZM82.74 11.7501C83.1578 12.166 83.3678 12.666 83.3678 13.2501C83.3678 13.5823 82.8223 13.8323 81.7356 14.0001C81.2334 13.832 80.9823 13.5001 80.9823 13.0001V12.5001L81.1078 12.3751C81.3589 12.957 81.5667 13.2501 81.7356 13.2501H81.9867L81.7356 11.8751H81.9867L82.3634 13.0001H82.74L82.3634 11.8751L82.4889 11.7501H82.74ZM90.0222 3.37503H90.2733C90.858 3.37503 91.1525 3.58378 91.1525 4.00003C91.1525 5.00004 90.4814 5.50005 89.1436 5.50005L87.3858 5.12504V5.75005H87.1344L86.8833 5.50005C86.8833 4.75004 87.1758 4.3341 87.7622 4.25004L88.5155 4.62504C88.7666 4.2091 89.2688 3.79316 90.0222 3.37503ZM87.7622 7.12506C88.7666 8.87507 89.2691 10.0001 89.2691 10.5001V10.8751L89.1436 11.1251L88.8925 10.8751H88.7669V11.1251C89.7714 17.2911 90.2736 21.2914 90.2736 23.1252V23.8749C90.2736 24.8752 89.9792 25.5002 89.3947 25.7499H89.2688V25.5002L89.3941 23.2499L88.7663 19.1252L87.2597 9.75008L87.1341 9.00008V8.50007C87.3011 7.58413 87.5111 7.12506 87.7622 7.12506ZM89.2688 4.62504V4.75004L90.2729 4.50004V4.12503H90.1477C89.5611 4.2091 89.2688 4.37504 89.2688 4.62504ZM101.699 28.3752C101.196 28.7074 98.0576 30.0003 92.2821 32.2503L92.1566 32.1253V32.0003C92.3232 31.5003 95.421 30.2074 101.448 28.1252L101.699 28.3752ZM92.7843 18.5002C93.3691 18.5002 93.6635 18.8323 93.6635 19.4999V19.6249L93.4121 20.0002C93.4121 19.7502 93.1177 19.5824 92.5332 19.4999L92.2821 19.2502V19.1252C92.3647 18.707 92.5332 18.5002 92.7843 18.5002ZM93.6632 13.2501L94.0399 13.7501V14.0001C94.0399 14.082 93.8302 14.1251 93.4121 14.1251L93.6632 14.3751H94.7932V14.6251C94.7932 15.1251 94.0399 15.5411 92.5332 15.8751V15.7501L93.0358 15.1251L92.5332 14.6251V14.3751C92.6999 13.6251 93.0766 13.2501 93.6632 13.2501ZM94.5421 18.0002L95.0443 18.2502V18.5002C95.0443 18.7502 94.8758 18.8748 94.5421 18.8748V19.4999L94.291 20.1249H94.1654V18.5002L94.5421 18.0002ZM94.5421 24.7502C95.2951 25.3321 96.0487 25.6252 96.8021 25.6252C96.4665 24.8755 96.0054 24.4999 95.421 24.4999C94.8343 24.5824 94.5421 24.6661 94.5421 24.7502ZM97.4298 31.5003H97.681C98.3498 31.5003 98.6854 31.8325 98.6854 32.5003C98.6854 32.7503 98.1828 32.9162 97.1784 33.0006V33.3753L97.8062 35.6253H97.681C97.5965 35.6253 97.2198 34.7912 96.5507 33.1253C96.5507 32.7912 96.7588 32.5003 97.1784 32.2503V32.1253V32.0003L97.4298 31.5003ZM159.83 27.8752H160.081V28.0002C160.081 28.6662 159.661 28.9999 158.826 28.9999L158.449 29.1249H157.696H157.57C155.812 30.5409 154.682 31.25 154.18 31.25V31.1253L156.315 29.4999L157.696 28.3749L158.951 28.4999V28.3749L159.202 28.0002L159.453 28.3752L159.83 27.8752ZM158.575 11.5001C158.992 11.666 159.202 11.957 159.202 12.3751V12.5001C159.202 12.8323 158.867 13.0823 158.198 13.2501H158.072C157.821 13.2501 157.696 13.0001 157.696 12.5001C158.029 11.916 158.324 11.5823 158.575 11.5001ZM158.198 12.1251L158.072 12.3751L158.323 12.5001H158.449L158.7 12.3751L158.198 12.1251ZM158.575 16.3751C159.159 16.6251 159.453 17.0411 159.453 17.6251H159.202H159.077C159.077 17.5411 158.826 17.4164 158.324 17.2501V16.6251L158.575 16.3751ZM160.458 16.2501L160.583 16.6251V17.0001C160.248 17.0001 160.081 17.2073 160.081 17.6251H159.704C159.871 16.707 160.122 16.2501 160.458 16.2501ZM170 30.6253C169.665 31.1256 166.233 32.4162 159.705 34.5V34.2503C160.207 33.8325 163.638 32.625 170 30.6253ZM164.852 27.7502H164.978C165.562 27.7502 166.149 28.1252 166.736 28.8752C166.736 29.4574 166.484 29.9165 165.982 30.2503H165.857C165.437 30.2503 164.935 29.9165 164.35 29.2506V29.1256L164.852 27.7502Z" fill="#4C4C4C"/>
</g>
<defs>
<clipPath id="clip0_6350_26607">
<rect width="170" height="37" fill="white"/>
</clipPath>
</defs>
</svg>
